<svg id="visual" viewBox="0 0 2500 450" width="2500" height="450" xmlns="http://www.w3.org/2000/svg" xmlns:xlink="http://www.w3.org/1999/xlink" version="1.1"><path d="M0 313L41.7 314.2C83.3 315.3 166.7 317.7 250 306.2C333.3 294.7 416.7 269.3 500 260.7C583.3 252 666.7 260 750 269.5C833.3 279 916.7 290 1000 284.3C1083.3 278.7 1166.7 256.3 1250 245.2C1333.3 234 1416.7 234 1500 251.2C1583.3 268.3 1666.7 302.7 1750 304.3C1833.3 306 1916.7 275 2000 274.7C2083.3 274.3 2166.7 304.7 2250 312.7C2333.3 320.7 2416.7 306.3 2458.3 299.2L2500 292L2500 451L2458.3 451C2416.7 451 2333.3 451 2250 451C2166.7 451 2083.3 451 2000 451C1916.7 451 1833.3 451 1750 451C1666.7 451 1583.3 451 1500 451C1416.7 451 1333.3 451 1250 451C1166.7 451 1083.3 451 1000 451C916.7 451 833.3 451 750 451C666.7 451 583.3 451 500 451C416.7 451 333.3 451 250 451C166.7 451 83.3 451 41.7 451L0 451Z" fill="#fa7268"></path><path d="M0 343L41.7 341C83.3 339 166.7 335 250 332.8C333.3 330.7 416.7 330.3 500 329.3C583.3 328.3 666.7 326.7 750 333.2C833.3 339.7 916.7 354.3 1000 352C1083.3 349.7 1166.7 330.3 1250 327.5C1333.3 324.7 1416.7 338.3 1500 342.2C1583.3 346 1666.7 340 1750 332C1833.3 324 1916.7 314 2000 307.8C2083.3 301.7 2166.7 299.3 2250 300.3C2333.3 301.3 2416.7 305.7 2458.3 307.8L2500 310L2500 451L2458.3 451C2416.7 451 2333.3 451 2250 451C2166.7 451 2083.3 451 2000 451C1916.7 451 1833.3 451 1750 451C1666.7 451 1583.3 451 1500 451C1416.7 451 1333.3 451 1250 451C1166.7 451 1083.3 451 1000 451C916.7 451 833.3 451 750 451C666.7 451 583.3 451 500 451C416.7 451 333.3 451 250 451C166.7 451 83.3 451 41.7 451L0 451Z" fill="#e34c67"></path><path d="M0 397L41.7 393.7C83.3 390.3 166.7 383.7 250 385.5C333.3 387.3 416.7 397.7 500 402.5C583.3 407.3 666.7 406.7 750 402.2C833.3 397.7 916.7 389.3 1000 388.3C1083.3 387.3 1166.7 393.7 1250 388.8C1333.3 384 1416.7 368 1500 360.8C1583.3 353.7 1666.7 355.3 1750 364.5C1833.3 373.7 1916.7 390.3 2000 398.8C2083.3 407.3 2166.7 407.7 2250 400.2C2333.3 392.7 2416.7 377.3 2458.3 369.7L2500 362L2500 451L2458.3 451C2416.7 451 2333.3 451 2250 451C2166.7 451 2083.3 451 2000 451C1916.7 451 1833.3 451 1750 451C1666.7 451 1583.3 451 1500 451C1416.7 451 1333.3 451 1250 451C1166.7 451 1083.3 451 1000 451C916.7 451 833.3 451 750 451C666.7 451 583.3 451 500 451C416.7 451 333.3 451 250 451C166.7 451 83.3 451 41.7 451L0 451Z" fill="#c62368"></path></svg>