<svg id="visual" viewBox="0 0 1900 600" width="1900" height="600" xmlns="http://www.w3.org/2000/svg" xmlns:xlink="http://www.w3.org/1999/xlink" version="1.1"><path d="M0 373L31.7 380.3C63.3 387.7 126.7 402.3 190 408.2C253.3 414 316.7 411 380 397.7C443.3 384.3 506.7 360.7 570 364.7C633.3 368.7 696.7 400.3 760 417.5C823.3 434.7 886.7 437.3 950 417.8C1013.3 398.3 1076.7 356.7 1140 344.2C1203.3 331.7 1266.7 348.3 1330 370.8C1393.3 393.3 1456.7 421.7 1520 431C1583.3 440.3 1646.7 430.7 1710 431.2C1773.3 431.7 1836.7 442.3 1868.3 447.7L1900 453L1900 601L1868.3 601C1836.7 601 1773.3 601 1710 601C1646.7 601 1583.3 601 1520 601C1456.7 601 1393.3 601 1330 601C1266.7 601 1203.3 601 1140 601C1076.7 601 1013.3 601 950 601C886.7 601 823.3 601 760 601C696.7 601 633.3 601 570 601C506.7 601 443.3 601 380 601C316.7 601 253.3 601 190 601C126.7 601 63.3 601 31.7 601L0 601Z" fill="#fa7268"></path><path d="M0 502L31.7 492.2C63.3 482.3 126.7 462.7 190 447.2C253.3 431.7 316.7 420.3 380 413.8C443.3 407.3 506.7 405.7 570 419C633.3 432.3 696.7 460.7 760 463.2C823.3 465.7 886.7 442.3 950 431.3C1013.3 420.3 1076.7 421.7 1140 431C1203.3 440.3 1266.7 457.7 1330 471.2C1393.3 484.7 1456.7 494.3 1520 494.8C1583.3 495.3 1646.7 486.7 1710 474.8C1773.3 463 1836.7 448 1868.3 440.5L1900 433L1900 601L1868.3 601C1836.7 601 1773.3 601 1710 601C1646.7 601 1583.3 601 1520 601C1456.7 601 1393.3 601 1330 601C1266.7 601 1203.3 601 1140 601C1076.7 601 1013.3 601 950 601C886.7 601 823.3 601 760 601C696.7 601 633.3 601 570 601C506.7 601 443.3 601 380 601C316.7 601 253.3 601 190 601C126.7 601 63.3 601 31.7 601L0 601Z" fill="#e34c67"></path><path d="M0 500L31.7 504.5C63.3 509 126.7 518 190 513.3C253.3 508.7 316.7 490.3 380 494.5C443.3 498.7 506.7 525.3 570 531.8C633.3 538.3 696.7 524.7 760 515C823.3 505.3 886.7 499.7 950 493.7C1013.3 487.7 1076.7 481.3 1140 489.2C1203.3 497 1266.7 519 1330 517.3C1393.3 515.7 1456.7 490.3 1520 481.2C1583.3 472 1646.7 479 1710 481.7C1773.3 484.3 1836.7 482.7 1868.3 481.8L1900 481L1900 601L1868.3 601C1836.7 601 1773.3 601 1710 601C1646.7 601 1583.3 601 1520 601C1456.7 601 1393.3 601 1330 601C1266.7 601 1203.3 601 1140 601C1076.7 601 1013.3 601 950 601C886.7 601 823.3 601 760 601C696.7 601 633.3 601 570 601C506.7 601 443.3 601 380 601C316.7 601 253.3 601 190 601C126.7 601 63.3 601 31.7 601L0 601Z" fill="#c62368"></path></svg>