<svg id="visual" viewBox="0 0 1900 600" width="1900" height="600" xmlns="http://www.w3.org/2000/svg" xmlns:xlink="http://www.w3.org/1999/xlink" version="1.1"><path d="M0 405L21.2 387C42.3 369 84.7 333 126.8 323.7C169 314.3 211 331.7 253.2 328.5C295.3 325.3 337.7 301.7 380 289.2C422.3 276.7 464.7 275.3 506.8 291.8C549 308.3 591 342.7 633.2 353.8C675.3 365 717.7 353 760 340.8C802.3 328.7 844.7 316.3 886.8 325.3C929 334.3 971 364.7 1013.2 377.8C1055.3 391 1097.7 387 1140 387.2C1182.3 387.3 1224.7 391.7 1266.8 382.2C1309 372.7 1351 349.3 1393.2 334.3C1435.3 319.3 1477.7 312.7 1520 301C1562.3 289.3 1604.7 272.7 1646.8 281C1689 289.3 1731 322.7 1773.2 325.8C1815.3 329 1857.7 302 1878.8 288.5L1900 275L1900 601L1878.8 601C1857.7 601 1815.3 601 1773.2 601C1731 601 1689 601 1646.8 601C1604.7 601 1562.3 601 1520 601C1477.7 601 1435.3 601 1393.2 601C1351 601 1309 601 1266.8 601C1224.7 601 1182.3 601 1140 601C1097.7 601 1055.3 601 1013.2 601C971 601 929 601 886.8 601C844.7 601 802.3 601 760 601C717.7 601 675.3 601 633.2 601C591 601 549 601 506.8 601C464.7 601 422.3 601 380 601C337.7 601 295.3 601 253.2 601C211 601 169 601 126.8 601C84.7 601 42.3 601 21.2 601L0 601Z" fill="#fa7268"></path><path d="M0 346L21.2 343.8C42.3 341.7 84.7 337.3 126.8 335.3C169 333.3 211 333.7 253.2 335.2C295.3 336.7 337.7 339.3 380 358.8C422.3 378.3 464.7 414.7 506.8 415.7C549 416.7 591 382.3 633.2 361.5C675.3 340.7 717.7 333.3 760 339C802.3 344.7 844.7 363.3 886.8 381.2C929 399 971 416 1013.2 417C1055.3 418 1097.7 403 1140 396.8C1182.3 390.7 1224.7 393.3 1266.8 403C1309 412.7 1351 429.3 1393.2 424.7C1435.3 420 1477.7 394 1520 378.7C1562.3 363.3 1604.7 358.7 1646.8 350.2C1689 341.7 1731 329.3 1773.2 323.3C1815.3 317.3 1857.7 317.7 1878.8 317.8L1900 318L1900 601L1878.8 601C1857.7 601 1815.3 601 1773.2 601C1731 601 1689 601 1646.8 601C1604.7 601 1562.3 601 1520 601C1477.7 601 1435.3 601 1393.2 601C1351 601 1309 601 1266.8 601C1224.7 601 1182.3 601 1140 601C1097.7 601 1055.3 601 1013.2 601C971 601 929 601 886.8 601C844.7 601 802.3 601 760 601C717.7 601 675.3 601 633.2 601C591 601 549 601 506.8 601C464.7 601 422.3 601 380 601C337.7 601 295.3 601 253.2 601C211 601 169 601 126.8 601C84.7 601 42.3 601 21.2 601L0 601Z" fill="#ef5f67"></path><path d="M0 384L21.2 394.7C42.3 405.3 84.7 426.7 126.8 429.7C169 432.7 211 417.3 253.2 415.5C295.3 413.7 337.7 425.3 380 437.7C422.3 450 464.7 463 506.8 463.3C549 463.7 591 451.3 633.2 448.8C675.3 446.3 717.7 453.7 760 452.7C802.3 451.7 844.7 442.3 886.8 427.8C929 413.3 971 393.7 1013.2 401.5C1055.3 409.3 1097.7 444.7 1140 450C1182.3 455.3 1224.7 430.7 1266.8 425.2C1309 419.7 1351 433.3 1393.2 446.8C1435.3 460.3 1477.7 473.7 1520 476.8C1562.3 480 1604.7 473 1646.8 455.3C1689 437.7 1731 409.3 1773.2 393.3C1815.3 377.3 1857.7 373.7 1878.8 371.8L1900 370L1900 601L1878.8 601C1857.7 601 1815.3 601 1773.2 601C1731 601 1689 601 1646.8 601C1604.7 601 1562.3 601 1520 601C1477.7 601 1435.3 601 1393.2 601C1351 601 1309 601 1266.8 601C1224.7 601 1182.3 601 1140 601C1097.7 601 1055.3 601 1013.2 601C971 601 929 601 886.8 601C844.7 601 802.3 601 760 601C717.7 601 675.3 601 633.2 601C591 601 549 601 506.8 601C464.7 601 422.3 601 380 601C337.7 601 295.3 601 253.2 601C211 601 169 601 126.8 601C84.7 601 42.3 601 21.2 601L0 601Z" fill="#e34c67"></path><path d="M0 529L21.2 530C42.3 531 84.7 533 126.8 528.7C169 524.3 211 513.7 253.2 501C295.3 488.3 337.7 473.7 380 467.3C422.3 461 464.7 463 506.8 477C549 491 591 517 633.2 521.8C675.3 526.7 717.7 510.3 760 505.7C802.3 501 844.7 508 886.8 511C929 514 971 513 1013.2 514.5C1055.3 516 1097.7 520 1140 514.7C1182.3 509.3 1224.7 494.7 1266.8 478.5C1309 462.3 1351 444.7 1393.2 442.5C1435.3 440.3 1477.7 453.7 1520 457.3C1562.3 461 1604.7 455 1646.8 449.8C1689 444.7 1731 440.3 1773.2 437.3C1815.3 434.3 1857.7 432.7 1878.8 431.8L1900 431L1900 601L1878.8 601C1857.7 601 1815.3 601 1773.2 601C1731 601 1689 601 1646.8 601C1604.7 601 1562.3 601 1520 601C1477.7 601 1435.3 601 1393.2 601C1351 601 1309 601 1266.8 601C1224.7 601 1182.3 601 1140 601C1097.7 601 1055.3 601 1013.2 601C971 601 929 601 886.8 601C844.7 601 802.3 601 760 601C717.7 601 675.3 601 633.2 601C591 601 549 601 506.8 601C464.7 601 422.3 601 380 601C337.7 601 295.3 601 253.2 601C211 601 169 601 126.8 601C84.7 601 42.3 601 21.2 601L0 601Z" fill="#d53867"></path><path d="M0 505L21.2 510.5C42.3 516 84.7 527 126.8 525.2C169 523.3 211 508.7 253.2 515C295.3 521.3 337.7 548.7 380 554.5C422.3 560.3 464.7 544.7 506.8 537.7C549 530.7 591 532.3 633.2 538.5C675.3 544.7 717.7 555.3 760 557C802.3 558.7 844.7 551.3 886.8 548.5C929 545.7 971 547.3 1013.2 547.8C1055.3 548.3 1097.7 547.7 1140 544.2C1182.3 540.7 1224.7 534.3 1266.8 537C1309 539.7 1351 551.3 1393.2 558.2C1435.3 565 1477.7 567 1520 558.5C1562.3 550 1604.7 531 1646.8 535C1689 539 1731 566 1773.2 570C1815.3 574 1857.7 555 1878.8 545.5L1900 536L1900 601L1878.8 601C1857.7 601 1815.3 601 1773.2 601C1731 601 1689 601 1646.8 601C1604.7 601 1562.3 601 1520 601C1477.7 601 1435.3 601 1393.2 601C1351 601 1309 601 1266.8 601C1224.7 601 1182.3 601 1140 601C1097.7 601 1055.3 601 1013.2 601C971 601 929 601 886.8 601C844.7 601 802.3 601 760 601C717.7 601 675.3 601 633.2 601C591 601 549 601 506.8 601C464.7 601 422.3 601 380 601C337.7 601 295.3 601 253.2 601C211 601 169 601 126.8 601C84.7 601 42.3 601 21.2 601L0 601Z" fill="#c62368"></path></svg>