<svg id="visual" viewBox="0 0 1700 200" width="1700" height="200" xmlns="http://www.w3.org/2000/svg" xmlns:xlink="http://www.w3.org/1999/xlink" version="1.1"><path d="M0 82L16.7 79.3C33.3 76.7 66.7 71.3 100 62.2C133.3 53 166.7 40 200 38C233.3 36 266.7 45 300 57.3C333.3 69.7 366.7 85.3 400 91.2C433.3 97 466.7 93 500 87C533.3 81 566.7 73 600 74.7C633.3 76.3 666.7 87.7 700 102C733.3 116.3 766.7 133.7 800 135.7C833.3 137.7 866.7 124.3 900 107.2C933.3 90 966.7 69 1000 60C1033.3 51 1066.7 54 1100 64.7C1133.3 75.3 1166.7 93.7 1200 90.2C1233.3 86.7 1266.7 61.3 1300 47.8C1333.3 34.3 1366.7 32.7 1400 46.8C1433.3 61 1466.7 91 1500 103.8C1533.3 116.7 1566.7 112.3 1600 104.3C1633.3 96.3 1666.7 84.7 1683.3 78.8L1700 73L1700 201L1683.3 201C1666.7 201 1633.3 201 1600 201C1566.7 201 1533.3 201 1500 201C1466.7 201 1433.3 201 1400 201C1366.7 201 1333.3 201 1300 201C1266.7 201 1233.3 201 1200 201C1166.7 201 1133.3 201 1100 201C1066.7 201 1033.3 201 1000 201C966.7 201 933.3 201 900 201C866.7 201 833.3 201 800 201C766.7 201 733.3 201 700 201C666.7 201 633.3 201 600 201C566.7 201 533.3 201 500 201C466.7 201 433.3 201 400 201C366.7 201 333.3 201 300 201C266.7 201 233.3 201 200 201C166.7 201 133.3 201 100 201C66.7 201 33.3 201 16.7 201L0 201Z" fill="#fa7268"></path><path d="M0 80L16.7 80.2C33.3 80.3 66.7 80.7 100 77.8C133.3 75 166.7 69 200 79.5C233.3 90 266.7 117 300 120.5C333.3 124 366.7 104 400 103.7C433.3 103.3 466.7 122.7 500 134.7C533.3 146.7 566.7 151.3 600 150.7C633.3 150 666.7 144 700 136C733.3 128 766.7 118 800 111.3C833.3 104.7 866.7 101.3 900 98C933.3 94.7 966.7 91.3 1000 100.3C1033.3 109.3 1066.7 130.7 1100 138.8C1133.3 147 1166.7 142 1200 140.2C1233.3 138.3 1266.7 139.7 1300 143.3C1333.3 147 1366.7 153 1400 148.7C1433.3 144.3 1466.7 129.7 1500 119C1533.3 108.3 1566.7 101.7 1600 107.7C1633.3 113.7 1666.7 132.3 1683.3 141.7L1700 151L1700 201L1683.3 201C1666.7 201 1633.3 201 1600 201C1566.7 201 1533.3 201 1500 201C1466.7 201 1433.3 201 1400 201C1366.7 201 1333.3 201 1300 201C1266.7 201 1233.3 201 1200 201C1166.7 201 1133.3 201 1100 201C1066.7 201 1033.3 201 1000 201C966.7 201 933.3 201 900 201C866.7 201 833.3 201 800 201C766.7 201 733.3 201 700 201C666.7 201 633.3 201 600 201C566.7 201 533.3 201 500 201C466.7 201 433.3 201 400 201C366.7 201 333.3 201 300 201C266.7 201 233.3 201 200 201C166.7 201 133.3 201 100 201C66.7 201 33.3 201 16.7 201L0 201Z" fill="#f36567"></path><path d="M0 127L16.7 127.7C33.3 128.3 66.7 129.7 100 124.2C133.3 118.7 166.7 106.3 200 105C233.3 103.7 266.7 113.3 300 120.8C333.3 128.3 366.7 133.7 400 136C433.3 138.3 466.7 137.7 500 135C533.3 132.3 566.7 127.7 600 132.2C633.3 136.7 666.7 150.3 700 147.8C733.3 145.3 766.7 126.7 800 115.7C833.3 104.7 866.7 101.3 900 102.3C933.3 103.3 966.7 108.7 1000 114.3C1033.3 120 1066.7 126 1100 132.5C1133.3 139 1166.7 146 1200 140.7C1233.3 135.3 1266.7 117.7 1300 119.8C1333.3 122 1366.7 144 1400 139.5C1433.3 135 1466.7 104 1500 89.5C1533.3 75 1566.7 77 1600 85.5C1633.3 94 1666.7 109 1683.3 116.5L1700 124L1700 201L1683.3 201C1666.7 201 1633.3 201 1600 201C1566.7 201 1533.3 201 1500 201C1466.7 201 1433.3 201 1400 201C1366.7 201 1333.3 201 1300 201C1266.7 201 1233.3 201 1200 201C1166.7 201 1133.3 201 1100 201C1066.7 201 1033.3 201 1000 201C966.7 201 933.3 201 900 201C866.7 201 833.3 201 800 201C766.7 201 733.3 201 700 201C666.7 201 633.3 201 600 201C566.7 201 533.3 201 500 201C466.7 201 433.3 201 400 201C366.7 201 333.3 201 300 201C266.7 201 233.3 201 200 201C166.7 201 133.3 201 100 201C66.7 201 33.3 201 16.7 201L0 201Z" fill="#eb5967"></path><path d="M0 124L16.7 131C33.3 138 66.7 152 100 152C133.3 152 166.7 138 200 131.2C233.3 124.3 266.7 124.7 300 120.8C333.3 117 366.7 109 400 106.7C433.3 104.3 466.7 107.7 500 106.3C533.3 105 566.7 99 600 98.5C633.3 98 666.7 103 700 108.7C733.3 114.3 766.7 120.7 800 120.3C833.3 120 866.7 113 900 114.7C933.3 116.3 966.7 126.7 1000 124.5C1033.3 122.3 1066.7 107.7 1100 104.3C1133.3 101 1166.7 109 1200 119.2C1233.3 129.3 1266.7 141.7 1300 138.2C1333.3 134.7 1366.7 115.3 1400 118C1433.3 120.7 1466.7 145.3 1500 149C1533.3 152.7 1566.7 135.3 1600 136C1633.3 136.7 1666.7 155.3 1683.3 164.7L1700 174L1700 201L1683.3 201C1666.7 201 1633.3 201 1600 201C1566.7 201 1533.3 201 1500 201C1466.7 201 1433.3 201 1400 201C1366.7 201 1333.3 201 1300 201C1266.7 201 1233.3 201 1200 201C1166.7 201 1133.3 201 1100 201C1066.7 201 1033.3 201 1000 201C966.7 201 933.3 201 900 201C866.7 201 833.3 201 800 201C766.7 201 733.3 201 700 201C666.7 201 633.3 201 600 201C566.7 201 533.3 201 500 201C466.7 201 433.3 201 400 201C366.7 201 333.3 201 300 201C266.7 201 233.3 201 200 201C166.7 201 133.3 201 100 201C66.7 201 33.3 201 16.7 201L0 201Z" fill="#e34c67"></path><path d="M0 162L16.7 155.7C33.3 149.3 66.7 136.7 100 133.8C133.3 131 166.7 138 200 146.5C233.3 155 266.7 165 300 166.8C333.3 168.7 366.7 162.3 400 159.2C433.3 156 466.7 156 500 154C533.3 152 566.7 148 600 151.7C633.3 155.3 666.7 166.7 700 171.8C733.3 177 766.7 176 800 173.8C833.3 171.7 866.7 168.3 900 161.3C933.3 154.3 966.7 143.7 1000 138.7C1033.3 133.7 1066.7 134.3 1100 136C1133.3 137.7 1166.7 140.3 1200 137.8C1233.3 135.3 1266.7 127.7 1300 123C1333.3 118.3 1366.7 116.7 1400 118.8C1433.3 121 1466.7 127 1500 131.5C1533.3 136 1566.7 139 1600 145.8C1633.3 152.7 1666.7 163.3 1683.3 168.7L1700 174L1700 201L1683.3 201C1666.7 201 1633.3 201 1600 201C1566.7 201 1533.3 201 1500 201C1466.7 201 1433.3 201 1400 201C1366.7 201 1333.3 201 1300 201C1266.7 201 1233.3 201 1200 201C1166.7 201 1133.3 201 1100 201C1066.7 201 1033.3 201 1000 201C966.7 201 933.3 201 900 201C866.7 201 833.3 201 800 201C766.7 201 733.3 201 700 201C666.7 201 633.3 201 600 201C566.7 201 533.3 201 500 201C466.7 201 433.3 201 400 201C366.7 201 333.3 201 300 201C266.7 201 233.3 201 200 201C166.7 201 133.3 201 100 201C66.7 201 33.3 201 16.7 201L0 201Z" fill="#da3f67"></path><path d="M0 183L16.7 183C33.3 183 66.7 183 100 181.2C133.3 179.3 166.7 175.7 200 174C233.3 172.3 266.7 172.7 300 168C333.3 163.3 366.7 153.7 400 148C433.3 142.3 466.7 140.7 500 145.7C533.3 150.7 566.7 162.3 600 165C633.3 167.7 666.7 161.3 700 162.3C733.3 163.3 766.7 171.7 800 174.8C833.3 178 866.7 176 900 168.7C933.3 161.3 966.7 148.7 1000 143.7C1033.3 138.7 1066.7 141.3 1100 141.5C1133.3 141.7 1166.7 139.3 1200 143.2C1233.3 147 1266.7 157 1300 158.7C1333.3 160.3 1366.7 153.7 1400 148.3C1433.3 143 1466.7 139 1500 140.3C1533.3 141.7 1566.7 148.3 1600 150C1633.3 151.7 1666.7 148.3 1683.3 146.7L1700 145L1700 201L1683.3 201C1666.7 201 1633.3 201 1600 201C1566.7 201 1533.3 201 1500 201C1466.7 201 1433.3 201 1400 201C1366.7 201 1333.3 201 1300 201C1266.7 201 1233.3 201 1200 201C1166.7 201 1133.3 201 1100 201C1066.7 201 1033.3 201 1000 201C966.7 201 933.3 201 900 201C866.7 201 833.3 201 800 201C766.7 201 733.3 201 700 201C666.7 201 633.3 201 600 201C566.7 201 533.3 201 500 201C466.7 201 433.3 201 400 201C366.7 201 333.3 201 300 201C266.7 201 233.3 201 200 201C166.7 201 133.3 201 100 201C66.7 201 33.3 201 16.7 201L0 201Z" fill="#d03267"></path><path d="M0 168L16.7 167.2C33.3 166.3 66.7 164.7 100 166C133.3 167.3 166.7 171.7 200 175.8C233.3 180 266.7 184 300 183.3C333.3 182.7 366.7 177.3 400 174.3C433.3 171.3 466.7 170.7 500 169.2C533.3 167.7 566.7 165.3 600 166.3C633.3 167.3 666.7 171.7 700 176.2C733.3 180.7 766.7 185.3 800 186C833.3 186.7 866.7 183.3 900 177.8C933.3 172.3 966.7 164.7 1000 165.7C1033.3 166.7 1066.7 176.3 1100 178.8C1133.3 181.3 1166.7 176.7 1200 175.8C1233.3 175 1266.7 178 1300 175.5C1333.3 173 1366.7 165 1400 165.5C1433.3 166 1466.7 175 1500 179.7C1533.3 184.3 1566.7 184.7 1600 181.8C1633.3 179 1666.7 173 1683.3 170L1700 167L1700 201L1683.3 201C1666.7 201 1633.3 201 1600 201C1566.7 201 1533.3 201 1500 201C1466.7 201 1433.3 201 1400 201C1366.7 201 1333.3 201 1300 201C1266.7 201 1233.3 201 1200 201C1166.7 201 1133.3 201 1100 201C1066.7 201 1033.3 201 1000 201C966.7 201 933.3 201 900 201C866.7 201 833.3 201 800 201C766.7 201 733.3 201 700 201C666.7 201 633.3 201 600 201C566.7 201 533.3 201 500 201C466.7 201 433.3 201 400 201C366.7 201 333.3 201 300 201C266.7 201 233.3 201 200 201C166.7 201 133.3 201 100 201C66.7 201 33.3 201 16.7 201L0 201Z" fill="#c62368"></path></svg>